<svg xmlns="http://www.w3.org/2000/svg" width="512" height="512" viewBox="0 0 512 512" version="1.1">
	<path d="M 327.247 1.250 C 324.614 4.550, 323 9.361, 323 13.912 L 323 18.923 318.750 20.003 C 312.444 21.606, 309.815 23.175, 308.069 26.376 C 305.038 31.932, 301.978 34.777, 296.747 36.900 L 291.468 39.042 284.984 32.756 C 276.413 24.446, 268.285 20.502, 256.500 18.935 C 245.921 17.528, 225.837 18.250, 218.500 20.301 C 202.020 24.908, 189.712 37.239, 185.361 53.500 C 183.797 59.348, 183.474 91.679, 184.929 96.754 C 185.754 99.628, 185.669 99.891, 184.179 99.082 C 181.348 97.542, 165.180 81.119, 159.600 74.115 C 152.632 65.369, 142.883 49.105, 136.454 35.500 C 128.615 18.911, 127.125 18, 107.836 18 C 93.027 18, 89.341 19.094, 86.016 24.474 C 84.240 27.347, 84 29.444, 84 42.066 C 84 54.638, 84.319 57.447, 86.599 64.948 C 103.819 121.605, 138.712 164.531, 190.200 192.398 C 195.888 195.477, 199.130 197.867, 199.567 199.304 C 200.202 201.395, 207.020 218.812, 225.478 265.500 C 230.045 277.050, 237.246 295.275, 241.480 306 C 249.651 326.693, 251.242 329.870, 256.998 337 C 265.536 347.574, 271.567 360.421, 275.030 375.410 C 277.098 384.359, 277.177 385.807, 276.054 394.301 C 273.883 410.736, 267.879 430.372, 258.870 450.500 L 253.500 462.500 253.500 480 C 253.500 496.712, 253.608 497.680, 255.907 501.500 C 257.231 503.700, 259.682 506.962, 261.353 508.750 L 264.392 512 288.579 512 L 312.765 512 316.646 508.119 C 327.577 497.187, 345.531 443.856, 347.686 415.917 C 348.025 411.525, 348.650 407.716, 349.076 407.453 C 350.012 406.874, 353.257 417.418, 353.302 421.183 C 353.319 422.659, 352.032 426.709, 350.443 430.183 C 347.669 436.243, 347.551 437.110, 347.526 451.500 C 347.494 469.899, 348.896 475.018, 355.772 481.606 C 362.660 488.205, 366.974 489.244, 385.771 488.823 C 399.598 488.514, 401.995 488.209, 405.595 486.295 C 414.182 481.729, 420.133 471.734, 424.572 454.421 C 427.040 444.796, 427.104 443.725, 426.735 418.500 C 426.354 392.510, 426.352 392.496, 423.068 381.500 C 414.032 351.251, 394.208 321.326, 361.739 288.923 L 348.289 275.500 344.705 258 C 342.734 248.375, 339.505 232.850, 337.529 223.500 C 332.889 201.542, 331.281 193.888, 328.540 180.700 L 326.294 169.899 329.397 168.302 C 342.026 161.804, 356.724 149.181, 363.319 139.170 C 375.609 120.514, 379.082 108.197, 380.599 77.884 L 381.181 66.267 391.340 62.884 C 404.315 58.562, 404.996 57.500, 404.998 41.583 C 405 32.981, 404.439 28.528, 402.354 20.583 C 398.657 6.498, 398.755 6.571, 383.166 6.174 L 370.381 5.849 369.278 2.924 L 368.174 0 348.209 0 C 333.436 0, 327.986 0.325, 327.247 1.250 M 305.500 74.655 C 298.466 76.142, 299 75.459, 299 82.970 C 299 91.378, 297.519 98.732, 294.403 105.799 L 292.066 111.099 298.200 107.799 C 306.685 103.235, 314.802 94.980, 319.286 86.354 C 321.328 82.423, 323 78.816, 323 78.338 C 323 77.861, 320.802 76.689, 318.116 75.735 C 313.420 74.067, 309.762 73.754, 305.500 74.655" stroke="none" fill="black" fill-rule="evenodd"/>
</svg>