<svg xmlns="http://www.w3.org/2000/svg" width="512" height="512" viewBox="0 0 512 512" version="1.1">
	<path d="M 319.459 51.880 C 314.374 54.189, 310.252 59.030, 308.823 64.369 C 307.957 67.605, 306.786 69.079, 303.419 71.174 C 301.055 72.644, 297.963 75.682, 296.548 77.924 C 295.133 80.166, 293.193 82.033, 292.237 82.074 C 291.282 82.115, 288.703 82.941, 286.506 83.910 L 282.511 85.673 278.270 80.955 C 275.576 77.959, 271.012 74.654, 265.764 71.899 C 257.706 67.668, 257.225 67.551, 246.479 67.179 C 236.001 66.817, 235.045 66.958, 227.096 70.023 C 220.075 72.731, 217.655 74.310, 212.001 79.874 C 207.909 83.900, 203.939 89.051, 201.883 93 C 198.509 99.482, 198.500 99.539, 198.500 113.500 C 198.500 125.773, 198.762 128.024, 200.625 131.750 C 201.793 134.088, 202.381 136, 201.932 136 C 201.482 136, 198.310 133.412, 194.882 130.250 C 178.802 115.414, 173.202 107.697, 162.050 85 C 155.003 70.658, 150.258 67, 138.700 67 C 132.072 67, 130.870 67.312, 127.177 69.987 C 116.772 77.524, 116.224 92.208, 125.556 113.500 C 126.279 115.150, 128.315 119.875, 130.081 124 C 131.847 128.125, 134.322 133.133, 135.581 135.128 C 136.841 137.124, 138.585 140.274, 139.457 142.128 C 143.471 150.665, 156.135 166.103, 169.564 178.829 C 180.240 188.945, 191.328 197.144, 204 204.289 C 211.208 208.353, 209.685 205.789, 219.861 231 C 222.635 237.875, 225.602 245.412, 226.453 247.750 C 227.304 250.088, 228.653 253.688, 229.452 255.750 C 230.250 257.813, 231.773 261.750, 232.837 264.500 C 237.982 277.802, 250.042 307.181, 251.577 310.152 C 252.528 311.993, 254.991 315.525, 257.049 318 C 266.177 328.976, 271 343.494, 271 359.998 C 271 376.770, 266.931 392.898, 257.251 414.500 C 251.240 427.915, 250.483 435.997, 254.426 444.639 C 258.469 453.496, 264.061 458.654, 272.354 461.175 C 289.007 466.237, 302.873 459.223, 310.992 441.630 C 320.261 421.545, 326.440 401.609, 329.005 383.510 C 330.067 376.016, 330.435 374.935, 331.219 377.010 C 333.089 381.961, 332.453 392.522, 330.004 397.177 C 328.119 400.760, 327.719 403.128, 327.669 411.005 C 327.614 419.675, 327.865 420.981, 330.525 425.869 C 333.474 431.287, 338.842 436.402, 344.700 439.375 C 346.956 440.521, 350.580 441, 356.984 441 C 364.611 441, 366.822 440.614, 370.783 438.589 C 379.268 434.253, 385.479 425.212, 389.923 410.729 C 392.954 400.847, 392.959 372.814, 389.931 362.528 C 385.350 346.968, 377.649 331.295, 367.072 316 C 361.839 308.433, 340.343 284.330, 334.734 279.740 C 330.727 276.461, 329.992 275.246, 328.986 270.240 C 328.352 267.083, 327.014 260.675, 326.012 256 C 325.010 251.325, 323.194 242.775, 321.976 237 C 310.366 181.923, 311.022 187.003, 315.203 184.560 C 319.729 181.916, 330.831 172.944, 334.627 168.862 C 347.024 155.531, 353.279 140.248, 355.003 119.077 C 355.604 111.695, 356.325 105.282, 356.607 104.827 C 356.888 104.372, 358.009 104, 359.099 104 C 361.662 104, 368.040 100.737, 370.129 98.356 C 375.518 92.217, 376.066 86.814, 372.625 73.734 C 370.144 64.306, 367.705 60.682, 362.282 58.371 C 358.822 56.897, 351.732 56.659, 348.532 57.910 C 347.035 58.495, 345.835 57.907, 343.520 55.452 C 338.381 50.003, 327.233 48.348, 319.459 51.880 M 294.537 112.872 C 291.691 113.482, 291.532 113.809, 290.517 121.163 C 289.784 126.471, 288.356 130.970, 285.864 135.827 C 283.221 140.978, 282.697 142.695, 283.884 142.308 C 288.811 140.702, 296.678 136.108, 299.967 132.916 C 303.583 129.407, 309 119.406, 309 116.239 C 309 112.622, 302.627 111.138, 294.537 112.872" stroke="none" fill="black" fill-rule="evenodd"/>
</svg>