<svg xmlns="http://www.w3.org/2000/svg" width="512" height="512" viewBox="0 0 512 512" version="1.1">
	<path d="M 301.989 58.250 C 300.854 60.111, 300.006 63.279, 300.004 65.662 C 300 69.691, 299.880 69.845, 296.250 70.461 C 293.785 70.880, 291.643 72.138, 290 74.131 C 280.184 86.040, 277.698 86.752, 270.119 79.825 C 261.552 71.996, 256.771 70.152, 243.104 69.408 C 216.777 67.974, 202.592 74.115, 194.958 90.251 C 192.027 96.447, 192.002 96.652, 192.001 114.343 L 192 132.185 187.171 127.843 C 180.604 121.937, 169.937 109.543, 166.402 103.711 C 161.179 95.093, 159.214 91.579, 156.499 86 C 148.287 69.125, 148.890 69.594, 134.850 69.160 C 121.724 68.753, 119.753 69.161, 115.931 73.071 C 113.040 76.028, 113 76.223, 113.013 87.284 C 113.023 96.484, 113.477 99.914, 115.538 106.368 C 120.295 121.263, 129.465 141.200, 135.372 149.486 C 136.542 151.128, 138.048 153.515, 138.719 154.790 C 140.114 157.445, 147.197 166.018, 154.500 173.891 C 162.539 182.557, 177.034 194.008, 188.683 200.893 C 194.633 204.410, 200.400 207.834, 201.500 208.503 C 202.600 209.172, 204.100 211.470, 204.833 213.610 C 206.494 218.455, 212.508 233.989, 215.051 240 C 216.097 242.475, 219.457 251.025, 222.516 259 C 225.575 266.975, 228.736 274.694, 229.539 276.154 C 230.343 277.614, 231 279.346, 231 280.003 C 231 280.660, 231.644 282.616, 232.432 284.349 C 233.219 286.082, 235.642 292, 237.816 297.500 C 243.682 312.345, 243.276 311.574, 249.681 320 C 259.037 332.308, 264.662 349.361, 263.522 361.960 C 262.907 368.757, 260.990 377.276, 258.335 385 C 257.485 387.475, 256.435 390.850, 256.002 392.500 C 255.569 394.150, 253.071 400.225, 250.450 406 C 245.871 416.090, 245.668 416.930, 245.242 427.520 C 244.713 440.682, 245.737 445.165, 250.563 450.803 L 254.156 455 273.432 455 C 296.467 455, 295.395 455.540, 302.564 440.330 C 310.897 422.648, 317.307 401.034, 319.418 383.500 L 320.621 373.500 322.311 377.372 C 324.552 382.510, 324.441 385.240, 321.787 390.290 C 319.828 394.018, 319.570 396.046, 319.537 408 C 319.504 420.086, 319.739 421.986, 321.785 426.138 C 323.151 428.910, 325.731 431.928, 328.198 433.638 C 332.119 436.357, 332.958 436.517, 344.953 436.845 C 364.391 437.376, 369.306 435.217, 375.002 423.648 C 380.404 412.674, 381.975 403.756, 381.988 383.977 C 381.999 368.608, 381.696 365.256, 379.528 356.707 C 372.750 329.990, 357.570 306.898, 327.787 278 C 320.941 271.357, 319.989 269.986, 319.457 266 C 319.126 263.525, 318.024 257.900, 317.006 253.500 C 315.989 249.100, 314.180 240.775, 312.987 235 C 311.793 229.225, 310.186 221.575, 309.415 218 C 306.547 204.702, 304.073 192.427, 303.791 190.096 C 303.556 188.157, 304.370 187.207, 308 185.183 C 315.236 181.148, 325.687 172.332, 329.901 166.708 C 340.099 153.097, 343.469 143.319, 344.966 123 C 345.593 114.475, 346.420 107.234, 346.804 106.908 C 347.187 106.583, 350.804 105.301, 354.842 104.059 C 361.368 102.053, 362.342 101.427, 363.592 98.433 C 365.685 93.426, 365.366 79.725, 363 73 C 361.936 69.975, 361.051 66.557, 361.033 65.405 C 360.965 61.034, 357.564 59.527, 346.935 59.157 C 338.283 58.857, 337.002 58.581, 336.471 56.907 C 335.908 55.136, 334.729 55, 319.918 55 L 303.971 55 301.989 58.250 M 285.500 113.875 C 282.589 114.494, 282.483 114.721, 281.911 121.507 C 281.316 128.575, 279.359 136.705, 277.831 138.450 C 275.874 140.687, 277.291 140.892, 281.139 138.929 C 286.796 136.043, 294.300 128.314, 297.417 122.164 C 298.838 119.360, 300 116.711, 300 116.277 C 300 115.316, 292.721 112.954, 290.266 113.118 C 289.295 113.183, 287.150 113.524, 285.500 113.875" stroke="none" fill="black" fill-rule="evenodd"/>
</svg>